PathFileType	4	(X/Y/Z)	path1_22_0-584.trc
DataRate	CameraRate	NumFrames	NumMarkers	Units	OrigDataRate	OrigDataStartFrame	OrigNumFrames
30	30	6	22	m	30	438	584
Frame#	Time	Hip			RHip			RKnee			RAnkle			RBigToe			RSmallToe			RHeel			LHip			LKnee			LAnkle			LBigToe			LSmallToe			LHeel			Neck			Head			Nose			RShoulder			RElbow			RWrist			LShoulder			LElbow			LWrist		
		X1	Y1	Z1	X2	Y2	Z2	X3	Y3	Z3	X4	Y4	Z4	X5	Y5	Z5	X6	Y6	Z6	X7	Y7	Z7	X8	Y8	Z8	X9	Y9	Z9	X10	Y10	Z10	X11	Y11	Z11	X12	Y12	Z12	X13	Y13	Z13	X14	Y14	Z14	X15	Y15	Z15	X16	Y16	Z16	X17	Y17	Z17	X18	Y18	Z18	X19	Y19	Z19	X20	Y20	Z20	X21	Y21	Z21	X22	Y22	Z22
439	14.633333333333333	-0.47653191921016336	0.8221767411374711	0.685215000501948	-0.4590509579824203	0.7937738162534534	0.5837122108026118	-0.37700091968476046	0.44232408268501966	0.5933625861037932	-0.13679701648553588	0.15012767394417487	0.6100469332146262	-0.25924318921319556	0.01173474672453082	0.604018863267077	-0.21231284705000536	0.02438630295701918	0.5656456166087677	-0.0668240080455586	0.11452576675641635	0.6275968197825457	-0.48645224386314845	0.7888883466182559	0.7810261273892946	-0.6379799472455534	0.4575561085717966	0.7659057471231057	-0.7315018399959292	0.09418730032389945	0.7403500253364178	-0.923472570235273	0.06451791755270253	0.7558736394613232	-0.8737076200583935	0.05435940306485017	0.801763666023883	-0.6973983756597231	0.026921103335096175	0.728582144972716	-0.4980052463241124	1.430368522845325	0.6978254467146106	-0.5918137425754146	1.6886637329984688	0.7058262931783928	-0.5805712343986787	1.5169536836189725	0.6239231014746598	-0.4930370269958333	1.3441341853460083	0.5098531033259998	-0.5363567255558135	1.067386831473388	0.4565400536660164	-0.7114380798438122	0.8746970738977182	0.4612938072409975	-0.4873627315316442	1.3361465202814973	0.8817006365917414	-0.3916415692599943	1.0715213652948312	0.9160112312672037	-0.3819755548258498	0.8255203313096658	0.9279669902905903
440	14.666666666666666	-0.5221919761685896	0.8225093869125948	0.693345744936493	-0.5059481346139496	0.7955568856091058	0.5919198570923578	-0.44043706996931026	0.4449688265177564	0.5912804904382989	-0.17638665402090256	0.17247788589193852	0.6088475061421545	-0.26889567322135155	0.010555020983334922	0.6032336811486227	-0.22276752677772105	0.0325114726250938	0.5646368957944248	-0.10208558757109047	0.14591009629484267	0.6280335107973996	-0.5309963516554491	0.7904077939090727	0.7880971030970443	-0.6716678182506381	0.460089131651497	0.7649598717985383	-0.7422320607753391	0.08930437408925704	0.7396249551082218	-0.9391293634644121	0.048600361819182744	0.7576224503335767	-0.8881990026434042	0.040867416910921224	0.8015668251314156	-0.7029324586742752	0.027253061433789146	0.7261086503576798	-0.5396135511814785	1.4313068006479874	0.7059012200937373	-0.6339385510742082	1.6900335903905148	0.714689772957046	-0.6158371194999885	1.5160569654186762	0.6254978925789125	-0.5357135123305121	1.3473824684108089	0.5167038750669825	-0.5697620075374399	1.0659514169427307	0.46420468902706524	-0.738394463505033	0.8691987428170723	0.46695644494370137	-0.5284205825404761	1.3363235856485185	0.8896817575261533	-0.43254428481181634	1.0684886585126607	0.9184496832531968	-0.4267645043665035	0.8225017913699767	0.932304940585755
441	14.7	-0.5674330851579814	0.8241051179147404	0.7011529376722733	-0.5529377317305345	0.7990244197336197	0.6001276397803781	-0.5124295747341233	0.449407059245324	0.5877025105854361	-0.22754583495074046	0.195666474762274	0.60736211143176	-0.288779389795218	0.013346973549755926	0.6013276847809106	-0.24404016175764198	0.04349647896627445	0.5626116348922985	-0.15067306037483558	0.17885131758293576	0.6291497181826232	-0.5747191606112872	0.7930985883823478	0.7949247399581241	-0.7018361324713424	0.4634918674804382	0.7634126195358122	-0.7474984660069486	0.0851677226446145	0.7387171538666273	-0.9496544691655857	0.03524544784063467	0.7584639444985888	-0.8975663747481883	0.029724115017854748	0.8011929548289873	-0.7060153291505492	0.027735872917711756	0.7240202866862131	-0.5801437877363976	1.4337330528443553	0.7134175047918221	-0.6749220041927432	1.6919809159651173	0.7229155705292177	-0.6611475130165345	1.5192337243039773	0.6384928087009152	-0.5764882625834553	1.3518792649821618	0.5228447827290325	-0.6007161735255477	1.065748968094049	0.47209785662165893	-0.7593896371935296	0.8638367719341646	0.4720163774486129	-0.5671223783768432	1.3358504812474847	0.8978503377536236	-0.4749375960033482	1.0647303976998408	0.9198506249924729	-0.4760226568886352	0.8194557042728702	0.9371031196024253
442	14.733333333333333	-0.6112637950724586	0.8266084311646884	0.7080805996220204	-0.599155109126132	0.8033292996302634	0.607783600957149	-0.5885032085903357	0.4553301366161258	0.5836753038930692	-0.2880417361269733	0.2172664594549929	0.6054976715723251	-0.32320551713848095	0.020359446611795586	0.5978811231244938	-0.27903459324728475	0.05680127291412327	0.5594284501994456	-0.2093714648265935	0.20934763539577403	0.6300856845098931	-0.6165901198743995	0.796122187828689	0.8007906238003761	-0.7275804022179079	0.4657927739122059	0.7618051966795488	-0.7491370333504829	0.08207572500323856	0.73727685399413	-0.9554795240782136	0.02529152425713628	0.7582815734269643	-0.9019678084977016	0.02164798928447413	0.8008827408274892	-0.7086773206598954	0.02812516556726356	0.722241686935538	-0.6188950226847874	1.4372817012857044	0.7197789627248457	-0.7136665232285507	1.6936934703151296	0.7294913644094687	-0.7147366681714113	1.5259427118951068	0.6607676225713767	-0.6150191775564642	1.3571536358170437	0.5280822618154726	-0.6291841444148069	1.0667621851929996	0.4796855582616583	-0.7751461419495432	0.8592269666269208	0.4764667562580419	-0.6041390394388731	1.3354956535292883	0.9048331441132489	-0.5183525688505132	1.060401098595793	0.9200103571877325	-0.5292693396414049	0.8167220802973258	0.9421321477748726
443	14.766666666666667	-0.65291284918923	0.829491737298245	0.7136399731710192	-0.6438219223450771	0.8073011806363104	0.6142750879388117	-0.6628531909294874	0.4618363841385098	0.5806832241184957	-0.35453036217574013	0.2348739320937032	0.6033096570209201	-0.37581936203303135	0.029757730835035783	0.5931110459937017	-0.329223219094283	0.07096872164360496	0.5549891350954849	-0.2741468271916033	0.23317092012199603	0.630191765444243	-0.6556834656976491	0.7985721676669326	0.8051158873025188	-0.7483847964584041	0.4654120428683325	0.7608857645037178	-0.7491091999356774	0.08047284102282952	0.7357064632628788	-0.9573747797522484	0.018297945617592976	0.7573652667771665	-0.9027355378682018	0.016201096993195135	0.8007373815429792	-0.7115099093557102	0.028244103646077476	0.7210275414993373	-0.6553152439753613	1.441547421067174	0.7244902066169132	-0.7493920336722518	1.694549726251522	0.7333500538546933	-0.7711331939027639	1.5344351998231516	0.6862338770679255	-0.6509540946877141	1.3625834942051436	0.5322915359053683	-0.6551339212119464	1.068833227242046	0.4864587491038556	-0.7865318993734284	0.8556924498769931	0.48020272346339826	-0.6399322908868846	1.3361962906854539	0.9095085929678445	-0.5627940271427591	1.0564190009091163	0.9196907348083083	-0.5858866357057896	0.8150987375565731	0.9472191517982744
444	14.8	-0.6917764805637533	0.832225431456971	0.7175007764632961	-0.6862111306722308	0.8099149930759386	0.6190525543542972	-0.7305857388435256	0.4678036048014069	0.579642373613575	-0.4240948456403883	0.24650554097953387	0.6009017880423411	-0.44829902329375015	0.03833284267428414	0.5880503997884312	-0.39501456869042084	0.0834595197092406	0.5492694382703949	-0.3422682250815261	0.24646069244309582	0.6289210979234577	-0.691278123641345	0.7997778112420648	0.8077485053162575	-0.7642696082138118	0.46190213259232893	0.7614104778370264	-0.7491828162697762	0.0806149488800205	0.7347623388050628	-0.9565818629667396	0.0135292074697139	0.7562626086949866	-0.9020698663884714	0.012528578806262352	0.8006916882869568	-0.7143171314234957	0.027837739576562534	0.7207253043907077	-0.6891879154618267	1.4460720893500547	0.7272633981374161	-0.7818196519233597	1.6941905319768042	0.7337677263904222	-0.8248060423544953	1.5426445308914698	0.7088667865547894	-0.6839381346887644	1.3674889560741461	0.5353959463833197	-0.6785421944819621	1.0717550491210905	0.4921004433648101	-0.7945066767768021	0.853322663804282	0.4830736449026202	-0.6744756806727373	1.3383351545714437	0.9114389813565948	-0.6087080536633367	1.0540730860887915	0.9204398505478824	-0.6451984664651215	0.8155253106978676	0.9523195163143676
